HIERARCHY
ROOT Hips
{
	OFFSET 0.00 0.00 0.00
	CHANNELS 6 Xposition Yposition Zposition Xrotation Yrotation Zrotation
	JOINT Spine
	{
		OFFSET 0.00000 1.70439 2.55658
		CHANNELS 3 Xrotation Yrotation Zrotation
		JOINT Spine1
		{
			OFFSET 0.00000 0.59193 3.35699
			CHANNELS 3 Xrotation Yrotation Zrotation
			JOINT Spine2
			{
				OFFSET 0.00000 0.29710 3.39581
				CHANNELS 3 Xrotation Yrotation Zrotation
				JOINT Spine3
				{
					OFFSET 0.00000 0.00000 3.40878
					CHANNELS 3 Xrotation Yrotation Zrotation
					JOINT Neck
					{
						OFFSET 0.00000 -1.27828 8.94804
						CHANNELS 3 Xrotation Yrotation Zrotation
						JOINT Head
						{
							OFFSET 0.00000 -0.81390 4.61586
							CHANNELS 3 Xrotation Yrotation Zrotation
							End Site
							{
								OFFSET 0.00000 0.00001 5.51796
							}
						}
					}
					JOINT RightShoulder
					{
						OFFSET -1.18875 -1.98124 6.41925
						CHANNELS 3 Xrotation Yrotation Zrotation
						JOINT RightArm
						{
							OFFSET -5.90412 0.00000 0.00000
							CHANNELS 3 Xrotation Yrotation Zrotation
							JOINT RightForeArm
							{
								OFFSET -11.94674 0.00000 0.00000
								CHANNELS 3 Xrotation Yrotation Zrotation
								JOINT RightHand
								{
									OFFSET -10.17720 0.00000 0.00000
									CHANNELS 3 Xrotation Yrotation Zrotation
									JOINT RightHandEnd
									{
										OFFSET -2.84518 0.00000 0.00000
										CHANNELS 3 Xrotation Yrotation Zrotation
										End Site
										{
											OFFSET -2.84518 0.00000 0.00000
										}
									}
									JOINT RightHandThumb1
									{
										OFFSET -1.13807 -1.89679 -0.75871
										CHANNELS 3 Yrotation Xrotation Zrotation
										End Site
										{
											OFFSET -2.74823 -0.73639 0.00000
										}
									}
								}
							}
						}
					}
					JOINT LeftShoulder
					{
						OFFSET 1.18875 -1.98124 6.41925
						CHANNELS 3 Xrotation Yrotation Zrotation
						JOINT LeftArm
						{
							OFFSET 5.90412 0.00000 0.00000
							CHANNELS 3 Xrotation Yrotation Zrotation
							JOINT LeftForeArm
							{
								OFFSET 11.94674 0.00000 0.00000
								CHANNELS 3 Xrotation Yrotation Zrotation
								JOINT LeftHand
								{
									OFFSET 10.17720 0.00000 0.00000
									CHANNELS 3 Xrotation Yrotation Zrotation
									JOINT LeftHandEnd
									{
										OFFSET 2.84518 0.00000 0.00000
										CHANNELS 3 Xrotation Yrotation Zrotation
										End Site
										{
											OFFSET 2.84518 0.00000 0.00000
										}
									}
									JOINT LeftHandThumb1
									{
										OFFSET 1.13807 -1.89679 -0.75871
										CHANNELS 3 Yrotation Xrotation Zrotation
										End Site
										{
											OFFSET 2.74823 -0.73639 0.00000
										}
									}
								}
							}
						}
					}
				}
			}
		}
	}
	JOINT RightUpLeg
	{
		OFFSET -3.52662 0.00000 -1.03025
		CHANNELS 3 Xrotation Yrotation Zrotation
		JOINT RightLeg
		{
			OFFSET 0.00001 0.00000 -17.80159
			CHANNELS 3 Xrotation Yrotation Zrotation
			JOINT RightFoot
			{
				OFFSET 0.00001 0.00000 -16.85992
				CHANNELS 3 Xrotation Yrotation Zrotation
				JOINT RightToeBase
				{
					OFFSET 0.00000 -5.42953 -1.97619
					CHANNELS 3 Xrotation Yrotation Zrotation
					End Site
					{
						OFFSET 0.00000 -2.85300 -0.00000
					}
				}
			}
		}
	}
	JOINT LeftUpLeg
	{
		OFFSET 3.52662 0.00000 -1.03025
		CHANNELS 3 Xrotation Yrotation Zrotation
		JOINT LeftLeg
		{
			OFFSET 0.00001 0.00000 -17.80159
			CHANNELS 3 Xrotation Yrotation Zrotation
			JOINT LeftFoot
			{
				OFFSET 0.00001 0.00000 -16.85992
				CHANNELS 3 Xrotation Yrotation Zrotation
				JOINT LeftToeBase
				{
					OFFSET 0.00000 -5.42953 -1.97619
					CHANNELS 3 Xrotation Yrotation Zrotation
					End Site
					{
						OFFSET 0.00000 -2.85300 -0.00000
					}
				}
			}
		}
	}
}
MOTION
Frames: 8
Frame Time: 0.008342
 -8.4591 -11.0182 30.2149 -6.2218 16.5165 117.7997 13.0502 1.5557 -1.0299 7.5661 0.4453 -0.2411 -2.7903 -0.6609 -1.4143 -0.8410 1.4449 -0.3951 -30.1576 -7.6905 2.4658 -45.6971 -0.8951 18.4000 23.8690 -17.3853 5.5552 -23.7244 -50.6979 -22.8218 -0.0000 0.0000 45.6026 -13.3908 37.1176 10.8107 -0.0000 0.0000 -0.0000 0.0000 -0.0000 0.0000 13.5711 11.7669 -15.9124 -7.1338 50.4764 -0.8155 -0.0000 -0.0000 -41.3090 -19.2004 -29.3933 -15.8849 -0.0000 -0.0000 0.0000 -0.0000 -0.0000 0.0000 -48.4400 20.3056 -4.4105 78.5195 0.0000 0.0000 -42.1939 -9.5669 -17.2836 -0.5471 0.0000 -0.0000 -61.6856 -11.2301 -1.9305 76.7166 0.0000 0.0000 -30.4547 10.4963 8.0732 -0.2410 0.0000 -0.0000
 -8.4557 -11.0183 30.1234 -6.1836 16.4774 117.7933 13.0674 1.5368 -1.0278 7.5656 0.4427 -0.2461 -2.7984 -0.6404 -1.4780 -0.8058 1.4419 -0.4141 -30.4099 -7.7714 2.3773 -45.5022 -0.8245 18.3853 23.5650 -17.6403 5.8794 -24.5388 -50.9131 -22.6952 -0.0000 0.0000 46.2849 -14.1728 37.7116 11.3367 0.0000 0.0000 0.0000 0.0000 0.0000 0.0000 13.3010 11.9210 -16.3723 -8.7333 50.3304 -0.2871 -0.0000 -0.0000 -42.0737 -19.3440 -29.5200 -16.1012 -0.0000 0.0000 -0.0000 -0.0000 0.0000 -0.0000 -48.6481 20.1647 -3.9657 79.0560 0.0000 0.0000 -42.3039 -9.5674 -17.4084 -0.6177 0.0000 -0.0000 -61.8946 -11.2258 -2.0097 77.2075 0.0000 0.0000 -30.5727 10.4938 8.1535 -0.4392 0.0000 -0.0000
 -8.4486 -11.0161 30.0419 -6.1357 16.4129 117.8105 13.0796 1.5108 -1.0221 7.5622 0.4321 -0.2531 -2.7979 -0.6076 -1.5314 -0.7696 1.4467 -0.4428 -30.6114 -7.8809 2.2700 -45.2836 -0.7613 18.3827 23.2481 -17.9135 6.2175 -25.0921 -51.1303 -22.2708 -0.0000 0.0000 46.9742 -14.9006 38.2437 11.8135 0.0000 -0.0000 -0.0000 0.0000 -0.0000 0.0000 12.9923 12.0664 -16.8344 -10.1013 50.1328 0.0050 -0.0000 -0.0000 -42.8881 -19.3648 -29.6310 -16.3176 -0.0000 -0.0000 0.0000 -0.0000 0.0000 0.0000 -48.7752 20.0433 -3.5502 79.5230 0.0000 0.0000 -42.4135 -9.5875 -17.4722 -0.5972 0.0000 -0.0000 -62.0593 -11.1996 -2.0913 77.6556 0.0000 0.0000 -30.6374 10.4954 8.2320 -0.6300 0.0000 -0.0000
 -8.4375 -11.0123 29.9712 -6.0880 16.3220 117.8495 13.0845 1.4816 -1.0117 7.5465 0.4250 -0.2598 -2.7777 -0.5921 -1.5857 -0.7369 1.4485 -0.4667 -30.7542 -7.9752 2.1747 -45.0556 -0.7140 18.3636 22.9279 -18.1830 6.5626 -25.3561 -51.3513 -21.5104 -0.0000 0.0000 47.6607 -15.5579 38.7154 12.2420 0.0000 -0.0000 0.0000 -0.0000 -0.0000 0.0000 12.6443 12.2294 -17.3080 -11.2299 49.8709 0.0749 -0.0000 -0.0000 -43.7764 -19.2454 -29.7175 -16.5371 0.0000 -0.0000 0.0000 -0.0000 0.0000 -0.0000 -48.8274 19.9275 -3.1724 79.9241 0.0000 0.0000 -42.5268 -9.6075 -17.5058 -0.4882 0.0000 -0.0000 -62.1845 -11.1631 -2.1791 78.0615 0.0000 0.0000 -30.6582 10.5006 8.3005 -0.7933 0.0000 -0.0000
 -8.4233 -11.0073 29.9110 -6.0430 16.2325 117.9062 13.0491 1.4454 -0.9974 7.5271 0.4188 -0.2630 -2.7424 -0.5621 -1.6429 -0.7026 1.4502 -0.4895 -30.8476 -8.0795 2.0707 -44.8080 -0.6762 18.3510 22.5896 -18.4730 6.9307 -25.2811 -51.5465 -20.3973 -0.0000 0.0000 48.3550 -16.1306 39.1245 12.6213 -0.0000 -0.0000 -0.0000 0.0000 0.0000 -0.0000 12.2727 12.3695 -17.7820 -12.1712 49.5745 -0.0454 -0.0000 -0.0000 -44.7670 -18.9535 -29.7687 -16.7560 0.0000 -0.0000 -0.0000 0.0000 0.0000 -0.0000 -48.8460 19.8210 -2.8239 80.2709 0.0000 0.0000 -42.6441 -9.6125 -17.5378 -0.3066 0.0000 -0.0000 -62.2919 -11.1133 -2.2615 78.4220 0.0000 0.0000 -30.6473 10.5055 8.3560 -0.9123 0.0000 -0.0000
 -8.4039 -10.9994 29.8629 -5.9594 16.0896 117.9678 13.0475 1.4178 -0.9859 7.5017 0.4137 -0.2619 -2.6963 -0.5244 -1.7104 -0.6693 1.4407 -0.5008 -30.8852 -8.1602 1.9810 -44.5518 -0.6523 18.3240 22.2379 -18.7615 7.3215 -24.8665 -51.7093 -18.9375 -0.0000 0.0001 49.0747 -16.5988 39.4736 12.9568 -0.0000 0.0000 0.0000 0.0000 -0.0000 -0.0000 11.8918 12.4917 -18.2584 -12.9578 49.2447 -0.3250 -0.0000 -0.0000 -45.8952 -18.4812 -29.7872 -16.9768 0.0000 -0.0000 -0.0000 -0.0000 0.0000 0.0000 -48.7601 19.7306 -2.5050 80.5643 0.0000 0.0000 -42.7686 -9.5915 -17.5926 -0.0800 0.0000 -0.0000 -62.2964 -11.0460 -2.3295 78.7286 0.0000 0.0000 -30.6306 10.5065 8.3970 -0.9764 0.0000 -0.0000
 -8.3801 -10.9907 29.8263 -5.8699 15.9184 118.0348 13.0382 1.3963 -0.9722 7.4745 0.4041 -0.2665 -2.6398 -0.4974 -1.7578 -0.6363 1.4340 -0.5208 -30.8724 -8.2185 1.9087 -44.2850 -0.6369 18.2873 21.8625 -19.0447 7.7467 -24.1055 -51.8154 -17.1565 -0.0000 0.0001 49.8530 -16.9466 39.7624 13.2517 0.0000 0.0000 0.0000 0.0000 0.0000 0.0000 11.5088 12.5797 -18.7278 -13.6527 48.9016 -0.7083 -0.0000 -0.0000 -47.2015 -17.8217 -29.7676 -17.2023 0.0000 -0.0000 0.0000 -0.0000 0.0000 0.0000 -48.6115 19.6320 -2.2235 80.8100 0.0000 0.0000 -42.8904 -9.5311 -17.6957 0.1539 0.0000 0.0000 -62.2380 -10.9800 -2.3962 78.9820 0.0000 0.0000 -30.6226 10.5045 8.4179 -0.9851 0.0000 -0.0000
 -8.3521 -10.9810 29.8012 -5.7744 15.7225 118.1015 13.0190 1.3771 -0.9583 7.4472 0.3987 -0.2683 -2.5773 -0.4758 -1.8041 -0.6025 1.4171 -0.5336 -30.8139 -8.2357 1.8652 -44.0073 -0.6271 18.2305 21.4675 -19.3054 8.1966 -23.0141 -51.8545 -15.0752 -0.0000 0.0001 50.7248 -17.1620 39.9963 13.5158 0.0000 -0.0000 0.0000 -0.0000 -0.0000 0.0000 11.1356 12.6259 -19.1889 -14.3100 48.5574 -1.1521 -0.0000 -0.0000 -48.7220 -16.9815 -29.7127 -17.4359 0.0000 -0.0000 0.0000 -0.0000 -0.0000 0.0000 -48.4077 19.5216 -1.9762 81.0122 0.0000 0.0000 -42.9972 -9.4287 -17.8573 0.3536 0.0000 0.0000 -62.1120 -10.9188 -2.4607 79.1774 0.0000 0.0000 -30.6385 10.4986 8.4198 -0.9482 0.0000 -0.0000
